<?xml version="1.0" encoding="iso-8859-1"?>
<!-- Generator: Adobe Illustrator 17.1.0, SVG Export Plug-In . SVG Version: 6.00 Build 0)  -->
<!DOCTYPE svg PUBLIC "-//W3C//DTD SVG 1.1//EN" "http://www.w3.org/Graphics/SVG/1.1/DTD/svg11.dtd">
<svg version="1.1" id="Capa_1" xmlns="http://www.w3.org/2000/svg" xmlns:xlink="http://www.w3.org/1999/xlink" x="0px" y="0px"
	 viewBox="0 0 183 183" style="enable-background:new 0 0 183 183;" xml:space="preserve">
<path d="M175.5,46.667h-42V36.292c0-11.557-9.402-20.958-20.958-20.958H70.458c-11.556,0-20.958,9.402-20.958,20.958v10.375h-42
	c-4.142,0-7.5,3.358-7.5,7.5v106c0,4.142,3.358,7.5,7.5,7.5h168c4.142,0,7.5-3.358,7.5-7.5v-106
	C183,50.025,179.642,46.667,175.5,46.667z M64.5,36.292c0-3.286,2.673-5.958,5.958-5.958h42.083c3.286,0,5.958,2.673,5.958,5.958
	v10.375h-54V36.292z"/>
<g>
</g>
<g>
</g>
<g>
</g>
<g>
</g>
<g>
</g>
<g>
</g>
<g>
</g>
<g>
</g>
<g>
</g>
<g>
</g>
<g>
</g>
<g>
</g>
<g>
</g>
<g>
</g>
<g>
</g>
</svg>
